<svg xmlns="http://www.w3.org/2000/svg" width="882" height="882"><path d="M422.275 749.946c-4.54-.962-7.961-3.438-9.883-7.155-1.713-3.312-2.228-8.517-6.367-64.291-1.143-15.4-2.728-36.1-3.522-46-.795-9.9-2.377-30.6-3.516-46s-4.266-56.575-6.949-91.5-5.154-67.775-5.491-73a715 715 0 0 0-1.537-19c-1.366-14.058-2.854-32.518-4.03-50-.575-8.525-1.463-19.55-1.975-24.5s-1.487-15.673-2.166-23.829c-1.23-14.774-2.527-19.33-4.853-17.04-1.387 1.366-2.882 12.996-6.924 53.869-1.686 17.05-3.5 34.825-4.03 39.5-1.87 16.487-2.968 26.611-4.01 37-.579 5.775-2.88 27.15-5.113 47.5-5.761 52.504-6.626 60.543-8.926 83-3.068 29.954-3.898 32.808-10.443 35.914-7.402 3.513-16.725.997-20.036-5.406-1.654-3.198-5.202-20.2-12.94-62.008-2.494-13.475-7.016-37.047-10.05-52.382-3.032-15.334-5.512-28.834-5.51-30 .004-1.165-.886-6.843-1.975-12.618l-4.435-23.5c-5.02-26.598-6.344-25.743-13.94 9-2.526 11.55-6.214 28.425-8.195 37.5s-6.058 28.65-9.061 43.5c-3.423 16.928-6.128 27.933-7.25 29.5-4.933 6.89-15.608 7.854-21.69 1.96-3.105-3.01-4.694-7.158-16.837-43.96-7.375-22.35-14.412-42.968-15.638-45.818-2.548-5.924-4.396-6.514-8.059-2.574-3.934 4.234-20.277 16.237-23.994 17.623-2.68 1-16.343 1.211-62.465.967l-59.035-.313.397-13.192c.218-7.256.609-13.418.868-13.693.26-.275 25.971-.598 57.138-.718l56.667-.219 6-6.305c24.903-26.17 26.493-27.676 30.481-28.87 3.092-.927 4.92-.935 7.926-.034 6.627 1.986 9.392 6.316 14.582 22.839C221.821 457.68 221.574 457 224.08 457c1.917 0 2.514-2.138 7.956-28.5 4.352-21.083 8.129-38.412 16.892-77.5.555-2.475 3.346-15.188 6.203-28.252 2.856-13.064 6.03-25.128 7.053-26.81 2.034-3.345 7.116-5.938 11.636-5.938 3.638 0 9.052 3.598 11.288 7.503.943 1.649 3.078 11.097 4.743 20.997s4.18 24.3 5.59 32c5.592 30.552 10.836 58.588 13.094 70 10.666 53.915 10.8 54.5 12.54 54.5 1.812 0 1.692.74 5.46-33.5.846-7.7 1.967-17.15 2.49-21 .845-6.231 2.987-25.23 6.03-53.5.563-5.225 1.446-12.875 1.964-17 2.778-22.153 3.948-32.192 4.486-38.5.829-9.705 2.387-24.57 3.513-33.5 1.115-8.85 4.394-39.684 5.953-56a1798 1798 0 0 1 4.049-38c.486-4.125 1.368-12.675 1.957-19 3.435-36.823 5.3-50.118 7.481-53.321 3.698-5.432 13.288-7.041 19.134-3.21 5.595 3.665 5.859 5.203 9.342 54.531.602 8.525 2.24 30.35 3.64 48.5s2.943 38.175 3.43 44.5c.486 6.325 1.364 18.25 1.95 26.5 1.328 18.669 3.708 46.947 5.008 59.5.541 5.225 1.467 15.8 2.057 23.5s2.172 26.6 3.515 42 4.033 47.8 5.98 72 4.21 51.65 5.029 61c.82 9.35 1.775 20.944 2.124 25.765.61 8.43 2.581 14.228 3.648 10.735.658-2.154 7.736-61.79 14.716-124 10.217-91.053 9.884-89.148 16.268-93.04 5.45-3.324 14.772-2.013 18.853 2.652.908 1.038 4.63 8.638 8.27 16.888 3.641 8.25 9.198 20.175 12.349 26.5l5.729 11.5 29.702.5c19.322.325 30.079.878 30.782 1.582.69.691.978 5.568.798 13.5L566.5 445.5l-28 .642c-19.142.438-29.74 1.093-33.5 2.07-11.576 3.01-17.674-1.182-24.642-16.937-2.456-5.553-4.962-6.853-5.83-3.025-.28 1.238-1.188 9.225-2.016 17.75s-1.954 19.1-2.503 23.5-5.064 45.125-10.035 90.5c-19.1 174.367-19.711 179.59-21.393 182.843-2.821 5.456-9.778 8.486-16.306 7.103M569 718.519v-26.48l2.25-.494c41.598-9.119 75.844-24.434 106.25-47.516 48.651-36.933 84.02-90.49 98.945-149.826 7.095-28.21 7.965-35.564 8.012-67.703.048-32.083-.687-38.862-6.977-64.399-20.239-82.159-77.014-150.144-153.391-183.677-13.513-5.933-34.103-12.77-45.339-15.055l-8.75-1.78v-25.294c0-15.924.365-25.295.984-25.295 2.92 0 27.01 5.639 36.977 8.655 66.681 20.182 126.598 62.661 166.266 117.88 32.148 44.75 50.639 91.601 59.385 150.465 2.605 17.538 2.334 59.093-.53 81-12.34 94.427-62.39 175.709-140.082 227.499-28.86 19.239-59.188 32.917-95 42.846-5.266 1.46-26.074 5.655-28.05 5.655-.576 0-.95-10.438-.95-26.481m.426-62.85c-.256-.67-.345-11.057-.196-23.084.226-18.274.517-21.985 1.77-22.577.825-.39 5.796-2.092 11.047-3.784 55.931-18.025 102.948-69.252 118.595-129.214 14.075-53.94 5.415-109.074-24.426-155.51-14.575-22.68-37.76-45.46-59.841-58.794-9.71-5.864-26.028-13.365-36.625-16.837l-9.75-3.193v-21.838c0-18.326.231-21.838 1.438-21.838 4.785 0 23.956 5.875 37.562 11.51 52.346 21.682 95.743 63.993 119.522 116.533 15.43 34.094 23.478 72.52 22.19 105.957-2.929 75.98-36.987 141.887-96.013 185.798-21.25 15.809-47.208 28.049-75.503 35.603-6.915 1.846-9.423 2.171-9.77 1.268m.024-82.94c-.268-.697-.366-12.261-.218-25.699l.268-24.432 6.274-3.55c16.55-9.36 30.094-23.399 38.637-40.048 17.023-33.174 17.355-70.141.932-103.534-8.275-16.825-19.513-29.617-35.477-40.382-5.151-3.474-9.672-7.051-10.046-7.95-.85-2.046-1.043-45.577-.205-46.416 1.528-1.528 25.657 9.655 36.603 16.964 24.528 16.38 46.182 44.935 56.718 74.792 6.53 18.507 8.254 28.21 8.805 49.558.557 21.55-.358 31.41-4.342 46.787-12.303 47.497-46.052 85.254-92.181 103.13-4.043 1.567-5.396 1.75-5.768.78M184.352 279.967c-1.732-.534-4.545-2.561-6.25-4.504-3.522-4.01-4.156-9.524-1.653-14.364 2.026-3.918 7.693-8.66 12.077-10.108 3.524-1.162 12.275-.955 15.474.368.825.341 2.175.19 3-.335 1.283-.817 1.521-6.13 1.645-36.74.08-19.681.192-36.539.25-37.461.113-1.809.071-1.79 38.388-16.235 12.531-4.723 23.387-8.588 24.125-8.588s1.623 1.406 1.967 3.125.625 21.198.625 43.288c0 39.662-.028 40.219-2.25 44.625-6.234 12.363-29.33 13.484-35.086 1.703-6.327-12.948 10.818-27 26.34-21.59 5.666 1.975 5.998.61 5.982-24.592-.014-23.773-.32-26.559-2.908-26.559-.928 0-12.685 4.408-26.126 9.796-19.64 7.873-24.684 10.278-25.687 12.25-.955 1.879-1.133 10.671-.761 37.502.483 34.807.471 35.078-1.759 39.5-3.045 6.038-8.731 9.125-17.617 9.564-3.645.18-8.045-.11-9.776-.645" style="fill:#1e9ded" transform="translate(9.719 15.29)"/><path d="M422.275 749.946c-4.54-.962-7.961-3.438-9.883-7.155-1.713-3.312-2.228-8.517-6.367-64.291-1.143-15.4-2.728-36.1-3.522-46-.795-9.9-2.377-30.6-3.516-46s-4.302-56.645-7.029-91.655S387 428.484 387 425.175v-6.015l7.25-1.636c3.988-.9 9.681-2.742 12.652-4.094s5.483-2.34 5.58-2.194c.414.613 2.762 27.093 6.054 68.264 1.934 24.2 4.188 51.65 5.007 61 .82 9.35 1.775 20.944 2.124 25.765.61 8.43 2.581 14.228 3.648 10.735.657-2.15 7.728-61.72 14.718-124 8.081-72.004 9.661-83.777 11.806-87.979 3.165-6.198 11.085-8.622 18.31-5.604 4.992 2.087 6.016 3.635 13.274 20.083 3.64 8.25 9.197 20.175 12.348 26.5l5.729 11.5 29.702.5c19.322.325 30.079.878 30.782 1.582.69.691.978 5.568.798 13.5L566.5 445.5l-28 .603c-17.438.376-29.32 1.053-31.5 1.794-7.41 2.522-14.993 1.083-19.283-3.657-.978-1.08-3.678-5.702-6-10.27-6.619-13.019-6.764-12.828-9.195 12.03-.833 8.525-1.964 19.1-2.513 23.5s-5.064 45.125-10.035 90.5c-19.1 174.367-19.711 179.59-21.393 182.843-2.821 5.456-9.778 8.486-16.306 7.103M569 718.519v-26.48l2.25-.494c41.598-9.119 75.844-24.434 106.25-47.516 48.651-36.933 84.02-90.49 98.945-149.826 7.095-28.21 7.965-35.564 8.012-67.703.048-32.083-.687-38.862-6.977-64.399-20.239-82.159-77.014-150.144-153.391-183.677-13.513-5.933-34.103-12.77-45.339-15.055l-8.75-1.78v-25.294c0-15.924.365-25.295.984-25.295 2.92 0 27.01 5.639 36.977 8.655 66.681 20.182 126.598 62.661 166.266 117.88 32.148 44.75 50.639 91.601 59.385 150.465 2.605 17.538 2.334 59.093-.53 81-12.34 94.427-62.39 175.709-140.082 227.499-28.86 19.239-59.188 32.917-95 42.846-5.266 1.46-26.074 5.655-28.05 5.655-.576 0-.95-10.438-.95-26.481m.426-62.85c-.256-.67-.345-11.057-.196-23.084.226-18.274.517-21.985 1.77-22.577.825-.39 5.796-2.092 11.047-3.784 55.931-18.025 102.948-69.252 118.595-129.214 14.075-53.94 5.415-109.074-24.426-155.51-14.575-22.68-37.76-45.46-59.841-58.794-9.71-5.864-26.028-13.365-36.625-16.837l-9.75-3.193v-21.838c0-18.326.231-21.838 1.438-21.838 4.785 0 23.956 5.875 37.562 11.51 52.346 21.682 95.743 63.993 119.522 116.533 15.43 34.094 23.478 72.52 22.19 105.957-2.929 75.98-36.987 141.887-96.013 185.798-21.25 15.809-47.208 28.049-75.503 35.603-6.915 1.846-9.423 2.171-9.77 1.268M317.3 584.04c-1.761-1.073-3.919-3.338-4.795-5.032-1.654-3.198-5.202-20.2-12.94-62.008-2.494-13.475-7.016-37.047-10.05-52.382-3.032-15.334-5.514-27.98-5.514-28.1s3.488-1.001 7.75-1.957c4.263-.955 9.995-2.355 12.74-3.11 2.743-.755 5.298-1.053 5.675-.662.378.391 2.637 10.611 5.02 22.711 3.327 16.89 4.68 22 5.824 22 1.594 0 2.272-4.034 5.408-32.163 1.835-16.462 2.063-17.286 4.604-16.621 2.274.594 20.525-2.402 23.134-3.8 1.653-.884 1.845-.562 1.845 3.092 0 2.243-1.81 20.147-4.022 39.785-4.841 42.987-6.315 56.531-8.995 82.707-2.34 22.834-3.335 28.582-5.537 31.942-3.536 5.397-14.103 7.284-20.147 3.598m252.15-11.31c-.267-.698-.365-12.262-.217-25.7l.268-24.432 6.274-3.55c16.55-9.36 30.094-23.399 38.637-40.048 17.023-33.174 17.355-70.141.932-103.534-8.275-16.825-19.513-29.617-35.477-40.382-5.151-3.474-9.672-7.051-10.046-7.95-.85-2.046-1.043-45.577-.205-46.416 1.528-1.528 25.657 9.655 36.603 16.964 24.528 16.38 46.182 44.935 56.718 74.792 6.53 18.507 8.254 28.21 8.805 49.558.557 21.55-.358 31.41-4.342 46.787-12.303 47.497-46.052 85.254-92.181 103.13-4.043 1.567-5.396 1.75-5.768.78M221.5 523.04c-5.78-2.406-7.209-5.628-20.935-47.213-7.35-22.27-14.365-42.816-15.588-45.659-2.542-5.91-4.393-6.498-8.053-2.56-3.934 4.234-20.277 16.237-23.994 17.623-2.68 1-16.343 1.211-62.465.967l-59.035-.313.397-13.192c.218-7.256.609-13.418.868-13.693.26-.275 25.951-.601 57.094-.725l56.622-.226 8.855-8.774c7.037-6.973 8.724-8.233 8.214-6.134-.359 1.475-.18 2.926.404 3.287 1.924 1.19 10.119 3.386 9.62 2.578-.27-.438.205-1.064 1.057-1.391.922-.354 2.582.437 4.097 1.952 1.4 1.4 3.963 2.694 5.694 2.874 3.363.35 3.453.373 11.282 2.901 6.32 2.04 6.835 2.046 8.795.086 1.016-1.015 1.373-2.522 1.009-4.25-1.437-6.822 2.128 2.188 8.158 20.615 8.135 24.86 8.278 25.207 10.417 25.207 1.96 0 1.905.163 5.461-16.284 3.37-15.588 2.493-14.377 10.062-13.895 5.6.357 10.718-.346 17.714-2.434 2.605-.777 2.292 2.866-1.823 21.196-1.965 8.754-6.03 28.067-9.031 42.917-3.423 16.93-6.126 27.932-7.248 29.5-3.536 4.939-12.051 7.37-17.648 5.04" style="fill:#1070ca" transform="translate(9.719 15.29)"/><path d="M569 718.52v-26.482l2.25-.493c41.598-9.119 75.844-24.434 106.25-47.516 48.651-36.933 84.02-90.49 98.945-149.826 7.095-28.21 7.965-35.564 8.012-67.703.048-32.083-.687-38.862-6.977-64.399-20.238-82.158-77.026-150.158-153.391-183.675-13.894-6.098-33.951-12.784-45.134-15.044l-8.955-1.81V110.75l2.75.577c31.7 6.653 45.69 10.867 69.059 20.798 52.684 22.39 99.618 59.751 132.418 105.41 32.148 44.75 50.639 91.601 59.385 150.465 2.605 17.538 2.334 59.093-.53 81-12.34 94.427-62.39 175.709-140.082 227.499-28.86 19.239-59.188 32.917-95 42.846-5.266 1.46-26.074 5.655-28.05 5.655-.576 0-.95-10.438-.95-26.481m.426-62.851c-.256-.67-.345-11.057-.196-23.084.226-18.274.517-21.985 1.77-22.577.825-.39 5.796-2.092 11.047-3.784 55.931-18.025 102.948-69.252 118.595-129.214 14.075-53.94 5.415-109.074-24.426-155.51-14.575-22.68-37.76-45.46-59.841-58.794-9.71-5.864-26.028-13.365-36.625-16.837l-9.75-3.193v-21.838c0-18.326.231-21.838 1.438-21.838 4.785 0 23.956 5.875 37.562 11.51 52.346 21.682 95.743 63.993 119.522 116.533 15.43 34.094 23.478 72.52 22.19 105.957-2.929 75.98-36.987 141.887-96.013 185.798-21.25 15.809-47.208 28.049-75.503 35.603-6.915 1.846-9.423 2.171-9.77 1.268m.024-82.94c-.268-.697-.366-12.261-.218-25.699l.268-24.432 6.274-3.55c16.55-9.36 30.094-23.399 38.637-40.048 17.023-33.174 17.355-70.141.932-103.534-8.275-16.825-19.513-29.617-35.477-40.382-5.151-3.474-9.672-7.051-10.046-7.95-.85-2.046-1.043-45.577-.205-46.416 1.528-1.528 25.657 9.655 36.603 16.964 24.528 16.38 46.182 44.935 56.718 74.792 6.53 18.507 8.254 28.21 8.805 49.558.557 21.55-.358 31.41-4.342 46.787-12.303 47.497-46.052 85.254-92.181 103.13-4.043 1.567-5.396 1.75-5.768.78" style="fill:#0e5a93" transform="translate(9.719 15.29)"/><path d="M569.678 744.344c-1.17-1.17-.8-51.15.384-51.882.584-.361 5.197-1.52 10.25-2.577 20.952-4.379 48.094-15.137 70.226-27.835 31.818-18.257 60.26-43.955 82.796-74.809 30.018-41.1 49.26-95.083 51.61-144.792 3.332-70.477-14.658-128.271-57.836-185.805-4.393-5.854-7.775-10.644-7.515-10.644s2.049 1.575 3.974 3.5c2.313 2.313 4.438 3.5 6.266 3.5 3.295 0 10.841 4.645 11.473 7.063.325 1.241 1.162 1.57 3.07 1.205 1.973-.377 2.624-.092 2.624 1.147 0 .906.708 1.92 1.574 2.252 1.102.423 1.39 1.338.961 3.05-.497 1.98-.274 2.376 1.176 2.082 1.439-.29 1.728-1.178 1.477-4.528l-.311-4.165 3.811.586c2.097.322 4.295.962 4.886 1.423s1.513.398 2.053-.142c.538-.538 2.843-1.103 5.123-1.256s4.472-.606 4.873-1.006c.4-.401 1.78.259 3.066 1.467 1.931 1.814 2.552 1.964 3.574.862.984-1.06.98-1.189-.013-.628-.824.465-1.25.004-1.25-1.353 0-2.823 1.428-2.581 3.509.595 1.607 2.452 1.816 2.516 2.755.839.772-1.38.606-2.115-.694-3.066-1.164-.85-1.608-2.315-1.39-4.588.31-3.238.482-3.068 5.697 5.661 11.448 19.16 13.19 22.43 19.188 36 7.86 17.78 11.81 28.698 16.283 45 8.61 31.375 11.652 54.043 11.652 86.85 0 66.307-17.84 125.388-54.55 180.65-18.076 27.212-39.262 50.402-64.45 70.548-37.637 30.104-88.593 54.247-132 62.544-5.775 1.103-11.208 2.214-12.072 2.468-.865.254-1.878.157-2.25-.216M791 271.56c0-.243-.45-.72-1-1.059-.55-.34-1-.141-1 .441s.45 1.059 1 1.059 1-.198 1-.441m-23-3.977c0-.23.273-1.13.607-2 .435-1.134.01-1.582-1.5-1.582-1.159 0-2.107.188-2.107.418s-.273 1.13-.607 2c-.435 1.134-.01 1.582 1.5 1.582 1.159 0 2.107-.188 2.107-.418m15-.523c0-.518-.45-1.22-1-1.559-.55-.34-1 .084-1 .941s.45 1.559 1 1.559 1-.423 1-.941m6-1.107c0-.459-.45-1.112-1-1.452s-1-.403-1-.14c0 .262-.275 1.193-.611 2.07-.448 1.166-.18 1.427 1 .974.886-.34 1.611-.993 1.611-1.452M569 633.479c0-25.867-1.557-22.433 12-26.463 4.125-1.226 12.913-4.803 19.53-7.948 50.97-24.234 88.939-71.847 101.726-127.568 4.154-18.103 5.248-27.914 5.183-46.5-.106-30.023-6.565-58.16-19.125-83.312-12.478-24.987-29.228-46.86-48.413-63.22-4.494-3.833-9.573-8.254-11.286-9.826l-3.115-2.859 3.5 2.163c1.925 1.189 4.513 2.66 5.75 3.268 1.238.61 2.25 1.439 2.25 1.844s3.6.6 8 .432c6.197-.237 8-.001 8 1.043 0 .742-.398 1.595-.885 1.896-.486.3-1.077 1.857-1.312 3.459-.413 2.815-.353 2.863 1.827 1.435 1.388-.91 2.373-2.697 2.562-4.65.286-2.943.607-3.195 4.428-3.474 3.455-.253 4.207.031 4.658 1.758.582 2.223 2.664 2.302 6.406.244 2.707-1.488 6.316-1.565 6.316-.134 0 .613.853.797 2 .433 1.121-.356 2-.18 2 .401 0 .57.693.77 1.54.445 1.632-.626 1.697 1.618.081 2.792-.483.352 1.485.964 4.373 1.361 3.959.545 5.463.387 6.113-.638 1.451-2.29 1.058-3.207-3.726-8.676-2.54-2.904-4.42-5.478-4.178-5.72.511-.512 18.03 19.946 21.726 25.371 15.417 22.629 26.903 46.574 34.058 71 3.792 12.946 6.844 30.189 8.65 48.882 1.743 18.02 1.738 18.432-.41 38-2.525 22.999-5.557 37.414-11.877 56.474-22.135 66.752-76.173 121.88-140.85 143.69-11.197 3.777-23.365 7.07-26.25 7.103-.963.012-1.25-5.148-1.25-22.506m0-85.459v-24.98l4.25-2.16c16.579-8.43 33.401-25.342 41.842-42.063 14.871-29.46 16.614-64.586 4.703-94.817-8.262-20.971-21.321-37.175-40.045-49.69l-9.75-6.516v-46.929l2.25.7c5.755 1.787 22.645 9.968 30.001 14.53C630.04 313.33 653.07 343.568 663.875 377c5.308 16.426 7.201 27.191 7.827 44.505.654 18.108-.435 29.86-4.2 45.34-9.635 39.606-35.256 74.118-70.002 94.296-6.827 3.965-24.822 11.859-27.032 11.859-1.252 0-1.468-3.682-1.468-24.98m46.441-287.488c-1.067-.808-1.491-1.468-.941-1.468s1.874.66 2.941 1.468c1.068.807 1.491 1.468.941 1.468s-1.873-.66-2.94-1.468m-7-4.087c-1.864-1.494-1.852-1.512.309-.465 1.238.6 2.25 1.3 2.25 1.555 0 .765-.519.544-2.559-1.09" style="fill:#0f4577" transform="translate(9.719 15.29)"/><path d="m570.233 718.356.267-25.643 10.5-2.334c12.637-2.81 37.166-11.086 47.793-16.127 31.343-14.867 53.123-30.26 78.175-55.252 46.419-46.307 74.97-110.167 79.133-177 .6-9.625.843-23.35.54-30.5-.546-12.877-.23-13.418 2.337-4l.817 3 .103-3.719c.079-2.87.444-3.587 1.602-3.143.825.317 1.5.078 1.5-.531s.675-1.107 1.5-1.107 1.5.445 1.5.988c0 .544 1.8 1.276 4 1.628s4 1.167 4 1.81c0 .688 1.548 1.169 3.75 1.165 2.063-.003 4.538.36 5.5.808 1.25.583 1.75.387 1.75-.685 0-1.785 2.394-2.884 4.513-2.07.832.319 2.158.044 2.947-.61.789-.655 2.47-1.057 3.737-.893 2.93.378 4.867-.81 4.191-2.572-.288-.752-.073-1.645.478-1.986s.778-2.299.503-4.351c-.44-3.288-.351-3.495.75-1.74.892 1.42 1.372 9.756 1.67 29 .538 34.595-1.383 52.198-9.433 86.446-10.045 42.736-35.463 92.307-65.805 128.334-44.365 52.679-110.001 91.414-177.417 104.702-5.654 1.114-10.48 2.026-10.724 2.026s-.324-11.54-.177-25.644m-.233-85.26c0-16.896.297-22.232 1.25-22.467.688-.17 5.834-1.785 11.437-3.59 37.789-12.175 74.147-41.533 96.894-78.24 19.719-31.82 28.862-65.065 28.9-105.073.012-12.18.35-18.901.88-17.5 2.201 5.809 2.545 6.18 1.99 2.15-.311-2.269-.162-4.375.332-4.68 1.003-.62 7.292 2.155 7.163 3.162-.35 2.714.197 3.35 1.762 2.052 1.367-1.134 1.818-1.048 3 .569 1.335 1.826 1.446 1.83 2.708.103 1.895-2.59 5.207-1.651 5.094 1.445-.049 1.36-.274 3.062-.5 3.781-.25.797 1.155 1.867 3.59 2.735 5.479 1.954 6.092 1.864 9.51-1.401 2.253-2.154 3.017-3.818 3.1-6.75l.11-3.892.958 4.5c2.403 11.281.475 45.193-3.752 66-9.057 44.574-30.147 84.611-61.279 116.329-28.661 29.201-57.487 46.84-96.073 58.785-5.184 1.605-11.147 3.194-13.25 3.53l-3.824.612Zm0-85.122v-24.947l3.447-1.44c1.896-.793 6.284-3.36 9.75-5.704 17.953-12.143 32.26-31.298 39.126-52.383 5.114-15.704 6.168-22.127 6.157-37.5-.01-15.533-1.578-25.441-6.08-38.424-1.32-3.809-2.4-7.132-2.4-7.385 0-1.152 3.808 4.573 4.491 6.753.422 1.344 1.721 3.242 2.888 4.217 2.036 1.701 2.186 1.695 3.747-.152.894-1.058 1.907-1.643 2.25-1.3s.624.212.624-.292 1.296-.917 2.88-.917c2.599 0 2.794.227 2 2.318-.786 2.065-.648 2.243 1.265 1.636 1.826-.58 2.064-.363 1.592 1.445-.708 2.706 2.43 4.687 5.026 3.174 1.08-.63 1.242-1.024.428-1.043-.72-.016-1.05-.449-.734-.96.317-.513.118-1.214-.44-1.56-1.412-.872-1.273-2.175.233-2.186.688-.005 2.263-.336 3.5-.734 1.349-.435 2.25-.311 2.25.308 0 .568 1.35 2.414 3 4.102 3.554 3.635 3.74 4.37.875 3.46-1.43-.454-1.902-.312-1.441.433.376.609 1.413 1.107 2.304 1.107 2.655 0 8.68-2.394 9.877-3.926.858-1.097 1.523 1.276 2.888 10.307 1.385 9.158 1.653 15.284 1.225 27.925-.616 18.137-2.682 29.828-8.177 46.249-13.15 39.297-43.464 71.863-81.801 87.877l-10.75 4.49ZM634 395c0-.55-.198-1-.441-1s-.72.45-1.059 1c-.34.55-.141 1 .441 1s1.059-.45 1.059-1m192.813 6.317c.721-.289 1.584-.253 1.916.079s-.258.568-1.312.525c-1.165-.048-1.402-.285-.605-.604m-208.249-24.024c-.542-1.425-.428-1.54.56-.56.684.679.99 1.486.683 1.793-.308.308-.867-.247-1.243-1.233" style="fill:#042958" transform="translate(9.719 15.29)"/></svg>