<svg version="1.1" id="Layer_1" xmlns="http://www.w3.org/2000/svg" xmlns:xlink="http://www.w3.org/1999/xlink" x="0px" y="0px"
	 width="2552" height="2552" viewBox="-444 0 2552 2552" xml:space="preserve">
<path fill="#1A72C7" opacity="1.000000" stroke="none" 
	d="
M1244.849487,1282.542969 
	C1238.751343,1305.562988 1216.596558,1323.235352 1193.080078,1323.919312 
	C1171.107178,1324.558228 1149.119995,1324.954712 1127.171875,1326.089355 
	C1116.930176,1326.618896 1106.789795,1328.886719 1096.557251,1329.898315 
	C1089.696045,1330.576660 1082.650024,1331.273438 1075.873779,1330.440918 
	C1067.612549,1329.425781 1061.082764,1324.532959 1056.738159,1317.272583 
	C1051.608643,1308.700562 1046.737305,1299.974609 1041.632446,1291.387695 
	C1039.655884,1288.062500 1037.346191,1284.935303 1034.202026,1280.247559 
	C1032.798462,1283.980347 1031.632446,1285.911987 1031.372681,1287.958618 
	C1029.447021,1303.132812 1027.664185,1318.325806 1025.909424,1333.521240 
	C1024.077759,1349.382324 1022.307617,1365.250732 1020.546936,1381.119995 
	C1018.675781,1397.985596 1016.879883,1414.859741 1014.990906,1431.723389 
	C1013.138916,1448.256226 1011.150879,1464.774048 1009.333923,1481.310547 
	C1007.518250,1497.834839 1005.882446,1514.378784 1004.089905,1530.905640 
	C1002.406616,1546.425049 1000.618469,1561.932861 998.881714,1577.446533 
	C997.106689,1593.302368 995.282043,1609.152954 993.579773,1625.016602 
	C990.988098,1649.167236 988.560242,1673.335327 985.918884,1697.480347 
	C983.457397,1719.981812 980.823730,1742.464600 978.235962,1764.952148 
	C976.297852,1781.793701 974.211731,1798.618652 972.372253,1815.470825 
	C969.955200,1837.613525 967.938110,1859.801758 965.340210,1881.922363 
	C962.466370,1906.392334 959.449158,1930.854980 955.876648,1955.230225 
	C953.747253,1969.759521 944.926270,1977.737183 930.088745,1980.432861 
	C915.986267,1982.994995 903.333984,1977.881104 896.963501,1965.663940 
	C894.145813,1960.260376 892.824219,1953.722778 892.243530,1947.566040 
	C889.338501,1916.766724 886.717285,1885.937378 884.349731,1855.091431 
	C880.984985,1811.253174 878.051270,1767.381836 874.700073,1723.542480 
	C872.187988,1690.678955 869.190918,1657.852661 866.632324,1624.992432 
	C864.849854,1602.099976 863.528809,1579.172119 861.846741,1556.271484 
	C860.213196,1534.031494 858.353333,1511.808228 856.644165,1489.573730 
	C853.861755,1453.376831 851.149475,1417.174438 848.352905,1380.978638 
	C846.608582,1358.402588 844.672607,1335.841064 842.999329,1313.259888 
	C842.064331,1300.642822 841.490112,1287.999023 841.121704,1274.397705 
	C841.696350,1272.891602 841.537415,1272.524536 841.013184,1272.327026 
	C840.881348,1271.269043 840.749512,1270.211060 841.255249,1267.890625 
	C845.529785,1261.710449 851.170288,1264.994751 855.692566,1263.246826 
	C869.488281,1257.914795 883.455933,1253.027466 897.356628,1247.967041 
	C898.145569,1255.571411 899.054199,1263.165649 899.704224,1270.781860 
	C904.205505,1323.523193 908.738953,1376.262085 913.084106,1429.016357 
	C915.542664,1458.865723 917.451477,1488.761108 920.002808,1518.602051 
	C922.072144,1542.805420 924.643433,1566.967773 927.205017,1591.125610 
	C927.689819,1595.697021 929.173706,1600.162598 931.811279,1604.912720 
	C932.457031,1602.336792 933.390198,1599.795288 933.704407,1597.179565 
	C937.158997,1568.424438 940.425354,1539.646362 943.929260,1510.897461 
	C946.986450,1485.813965 950.406250,1460.774536 953.435852,1435.687866 
	C956.227966,1412.567749 958.677185,1389.406494 961.347778,1366.271484 
	C963.253296,1349.764160 965.375977,1333.281494 967.216125,1316.767090 
	C968.944214,1301.259399 970.367615,1285.717896 972.038086,1270.203491 
	C973.565918,1256.014771 975.103027,1241.824585 976.895935,1227.667847 
	C978.858582,1212.171143 980.937073,1196.684082 983.318665,1181.247437 
	C984.736389,1172.058105 986.575928,1162.913208 988.695312,1153.858154 
	C991.144592,1143.393433 998.195557,1137.537720 1008.563538,1135.141235 
	C1022.825073,1131.844482 1038.450439,1135.606567 1045.954956,1152.130249 
	C1057.110107,1176.692261 1068.466309,1201.164307 1079.933472,1225.582397 
	C1085.582397,1237.611328 1091.671997,1249.433350 1098.062134,1262.360229 
	C1124.886597,1262.360229 1151.445557,1262.360229 1179.106079,1263.141846 
	C1182.804932,1264.585327 1185.402466,1265.247192 1188.677002,1266.233154 
	C1199.230957,1269.028076 1209.175415,1271.261475 1218.964966,1274.040771 
	C1227.696045,1276.519531 1237.474365,1275.925049 1244.849487,1282.542969 
z"/>
<path fill="#2D9CE8" opacity="1.000000" stroke="none" 
	d="
M897.542114,1247.111694 
	C883.455933,1253.027466 869.488281,1257.914795 855.692566,1263.246826 
	C851.170288,1264.994751 845.529785,1261.710449 841.413818,1267.102295 
	C839.259399,1250.700684 837.348938,1233.844238 835.960632,1216.944946 
	C833.562683,1187.756470 831.550354,1158.536377 829.257507,1129.338867 
	C827.771973,1110.421265 826.214233,1091.507202 824.440002,1072.614990 
	C821.949768,1046.097656 819.296875,1019.594971 816.528564,993.105286 
	C816.133667,989.326599 814.700745,985.656494 813.598389,981.350830 
	C808.449219,983.560669 808.244263,987.346680 807.778442,990.774048 
	C805.135620,1010.219299 802.392090,1029.654785 800.100525,1049.142700 
	C798.118835,1065.995850 796.750671,1082.920410 795.010193,1099.802979 
	C791.835876,1130.593384 788.651306,1161.383301 785.346008,1192.159912 
	C783.141968,1212.682495 780.720154,1233.181763 778.398071,1253.691772 
	C777.689331,1259.952515 776.988159,1266.214111 775.105469,1273.277588 
	C754.701965,1277.356445 735.476624,1280.633057 716.251221,1283.909546 
	C716.883118,1275.633057 717.281799,1267.331055 718.190186,1259.084961 
	C721.031921,1233.289062 724.104309,1207.518433 727.016541,1181.730225 
	C731.463928,1142.348877 735.903564,1102.966553 740.251221,1063.574097 
	C744.782715,1022.516113 749.290161,981.455139 753.645691,940.378235 
	C758.559814,894.032837 763.249756,847.663757 768.118652,801.313477 
	C771.873718,765.567383 775.758423,729.834900 779.578186,694.095520 
	C781.805054,673.260193 783.902954,652.410095 786.303406,631.594788 
	C787.063538,625.003662 788.657166,618.511047 789.793701,611.960205 
	C791.981445,599.349854 800.337402,593.138306 812.106201,590.788696 
	C829.779907,587.260193 843.320496,596.177429 846.050293,613.880188 
	C848.382568,629.005310 850.004150,644.273315 851.181274,659.536743 
	C854.357178,700.717224 856.980042,741.940186 860.102661,783.125061 
	C863.099182,822.647522 866.584534,862.132812 869.602051,901.653809 
	C872.569031,940.513733 874.934448,979.420959 878.083740,1018.265320 
	C881.474487,1060.087524 885.549500,1101.853882 889.175476,1143.657715 
	C892.140991,1177.847290 894.885254,1212.056030 897.542114,1247.111694 
z"/>
<path fill="#1B72C7" opacity="1.000000" stroke="none" 
	d="
M566.631653,1282.542114 
	C559.500000,1318.459229 552.495178,1354.402100 545.193420,1390.284668 
	C540.081848,1415.403809 534.726929,1440.476929 529.100525,1465.485107 
	C527.884155,1470.891357 526.050659,1476.703857 522.765869,1481.003296 
	C510.054199,1497.641724 480.484100,1497.303833 471.759338,1476.905640 
	C464.314117,1459.499146 457.890594,1441.616577 451.798828,1423.678467 
	C437.463074,1381.464600 423.700867,1339.056274 409.425415,1296.821655 
	C407.275696,1290.461792 405.980560,1282.999756 397.365356,1279.679810 
	C394.814514,1281.583374 391.921021,1283.687134 389.086609,1285.867798 
	C376.413177,1295.617920 363.814270,1305.466064 351.072815,1315.126343 
	C343.204010,1321.092163 334.593597,1324.447266 324.312012,1324.473877 
	C272.018585,1324.609375 219.726898,1325.348755 167.433380,1325.540161 
	C141.459702,1325.635254 115.483467,1325.003052 89.508224,1324.714478 
	C85.594933,1324.671021 81.680740,1324.708374 76.321625,1324.708374 
	C77.221489,1304.391846 78.067207,1285.297729 78.933052,1265.749146 
	C81.872009,1265.293457 84.077568,1264.685547 86.292267,1264.650146 
	C103.943466,1264.368408 121.595871,1264.109253 139.248856,1264.004150 
	C192.556213,1263.687012 245.864059,1263.451294 299.171539,1263.151611 
	C303.165222,1263.129272 307.244507,1262.249634 311.133545,1262.811035 
	C321.517242,1264.309814 328.735138,1259.926147 335.228607,1252.273682 
	C342.761993,1243.395630 351.102234,1235.202271 360.197510,1226.938965 
	C362.231079,1233.160767 361.673462,1239.059448 370.143036,1241.612183 
	C377.021057,1243.685425 382.710968,1244.611816 388.030823,1240.578003 
	C392.741943,1243.791382 396.464417,1247.599731 400.965332,1249.154175 
	C412.825287,1253.249634 424.923523,1256.777588 437.119873,1259.735718 
	C446.084290,1261.909912 448.910767,1259.634033 451.467255,1250.741455 
	C452.096466,1248.552612 452.788391,1246.381714 453.451508,1244.202637 
	C456.305634,1252.561890 459.218903,1260.901367 462.002441,1269.284058 
	C469.420532,1291.623413 476.713104,1314.004883 484.238739,1336.307617 
	C485.436157,1339.856201 487.581512,1343.084961 489.290375,1346.464966 
	C495.252075,1344.681152 495.615540,1340.409180 496.482910,1336.698242 
	C500.482819,1319.584351 504.331390,1302.435181 508.260071,1285.304565 
	C508.704376,1283.367188 509.311798,1281.467041 510.766815,1279.252930 
	C517.996521,1283.698242 525.530457,1282.960449 532.516296,1282.591431 
	C542.032349,1282.088501 551.490784,1280.186890 560.924316,1278.591431 
	C564.492249,1277.988159 565.722656,1279.796509 566.631653,1282.542114 
z"/>
<path fill="#1A71C6" opacity="1.000000" stroke="none" 
	d="
M715.892700,1284.646973 
	C735.476624,1280.633057 754.701965,1277.356445 774.714844,1273.999023 
	C774.819702,1286.178345 774.591919,1298.484619 773.360046,1310.689453 
	C770.789856,1336.153076 767.741821,1361.569214 764.787170,1386.993042 
	C762.944580,1402.846436 760.757935,1418.660767 759.011597,1434.524292 
	C757.266235,1450.378296 755.906616,1466.274658 754.323425,1482.147095 
	C752.510132,1500.326538 750.683838,1518.505127 748.775024,1536.674927 
	C747.181030,1551.848633 745.610596,1567.027710 743.733582,1582.167725 
	C742.754333,1590.066528 741.212830,1597.900146 739.780579,1605.736816 
	C738.705139,1611.620972 735.141235,1615.974487 730.556030,1619.545410 
	C711.530457,1634.363403 683.690857,1625.484375 678.159729,1602.149780 
	C672.264282,1577.278198 667.330688,1552.166138 662.475769,1527.062744 
	C653.824097,1482.326904 645.499084,1437.527588 637.131531,1392.737183 
	C631.585144,1363.047852 626.202759,1333.328125 621.780762,1302.864502 
	C627.927490,1301.063354 633.059937,1300.106201 638.149475,1298.958984 
	C651.197083,1296.018677 664.225708,1292.994019 677.261902,1290.003052 
	C680.343750,1304.576904 683.416504,1319.152710 686.509949,1333.723999 
	C689.263367,1346.693970 691.955627,1359.677734 694.855469,1372.614990 
	C695.758423,1376.643311 697.250732,1380.539429 698.745422,1385.377075 
	C703.490540,1382.185547 703.381958,1378.284058 703.820801,1375.016235 
	C706.556030,1354.647827 708.999756,1334.240479 711.615417,1313.855713 
	C712.834595,1304.354126 714.222595,1294.874146 715.892700,1284.646973 
z"/>
<path fill="#2E9CE7" opacity="1.000000" stroke="none" 
	d="
M677.383179,1289.226074 
	C664.225708,1292.994019 651.197083,1296.018677 638.149475,1298.958984 
	C633.059937,1300.106201 627.927490,1301.063354 622.073486,1302.114868 
	C618.258362,1286.460449 615.137512,1270.807251 612.122314,1255.133667 
	C608.223511,1234.867554 604.533569,1214.560181 600.458313,1194.330078 
	C599.591064,1190.024902 597.452942,1185.975830 595.517212,1180.780640 
	C589.405518,1185.720947 588.537170,1191.502563 587.162231,1196.727051 
	C584.538940,1206.695190 582.618530,1216.846069 580.283997,1226.892700 
	C576.065186,1245.047974 571.756531,1263.182617 567.058472,1281.933960 
	C565.722656,1279.796509 564.492249,1277.988159 560.924316,1278.591431 
	C551.490784,1280.186890 542.032349,1282.088501 532.516296,1282.591431 
	C525.530457,1282.960449 517.996521,1283.698242 511.088837,1278.566406 
	C512.394958,1268.069336 514.032349,1257.902466 516.252441,1247.864624 
	C533.507935,1169.842773 550.838989,1091.837524 568.261414,1013.852783 
	C570.154419,1005.379395 572.797852,997.453186 580.895264,992.047485 
	C601.502014,978.290649 621.689087,993.113281 625.455566,1008.659241 
	C626.944397,1014.804260 628.253540,1021.002625 629.375061,1027.225342 
	C639.412659,1082.918579 649.255371,1138.647461 659.437622,1194.314087 
	C665.186401,1225.742432 671.464600,1257.074097 677.383179,1289.226074 
z"/>
<path fill="#3FA9E8" opacity="1.000000" stroke="none" 
	d="
M1548.145020,1248.029175 
	C1549.374146,1241.179321 1550.705322,1234.345825 1551.815552,1227.476685 
	C1558.003052,1189.195312 1557.653687,1151.059326 1546.086914,1113.848145 
	C1525.780762,1048.522217 1482.818604,1006.281433 1415.539551,990.876587 
	C1380.921509,982.950195 1347.416748,989.208862 1315.201294,1003.198181 
	C1309.717773,1005.579407 1304.514771,1008.606567 1298.032471,1011.033997 
	C1291.875610,1012.320923 1287.405273,1011.376099 1283.577515,1007.775879 
	C1278.934204,1003.408569 1271.784668,1001.272461 1270.387817,994.006348 
	C1269.223267,987.948669 1268.676636,981.772217 1267.856445,975.648376 
	C1286.701294,961.369629 1307.928223,951.888916 1330.781738,946.702026 
	C1402.088379,930.518250 1467.194336,943.567932 1523.306519,991.545837 
	C1559.128052,1022.174561 1582.511108,1061.283081 1594.453003,1107.069458 
	C1610.761108,1169.596680 1606.937866,1230.946045 1582.732422,1291.676636 
	C1574.433960,1290.441040 1570.199463,1285.029297 1568.423462,1279.031738 
	C1565.874512,1270.424316 1561.141479,1263.725952 1554.783081,1258.001221 
	C1552.565430,1256.004639 1549.181641,1255.303467 1546.330322,1254.010742 
	C1546.483032,1252.890259 1546.635742,1251.769897 1547.599976,1250.173462 
	C1548.596313,1249.528931 1548.966064,1249.262817 1548.936646,1249.207275 
	C1548.717163,1248.791138 1548.418579,1248.416748 1548.145020,1248.029175 
z"/>
<path fill="#1D6CBC" opacity="1.000000" stroke="none" 
	d="
M1470.315674,1465.977783 
	C1456.133423,1489.286743 1443.625977,1513.367188 1435.294678,1539.491943 
	C1428.197876,1561.745850 1419.912476,1583.446289 1405.344360,1602.222412 
	C1386.442505,1626.584106 1363.472900,1645.333008 1333.046387,1652.629028 
	C1287.646851,1663.515625 1245.599609,1656.780762 1209.730713,1624.995483 
	C1187.781494,1605.545044 1174.774780,1580.746216 1170.265503,1551.773926 
	C1168.631226,1541.274536 1167.961670,1530.591919 1167.417114,1519.963989 
	C1166.648926,1504.970337 1176.188843,1494.245850 1190.066528,1493.832886 
	C1204.921875,1493.390991 1215.147949,1503.121094 1216.258423,1518.015503 
	C1217.096436,1529.256836 1217.536865,1540.722290 1220.173828,1551.598267 
	C1227.907471,1583.493652 1253.296509,1604.361572 1285.714966,1608.790771 
	C1328.613647,1614.651978 1360.838989,1587.983765 1375.108765,1559.824951 
	C1380.341797,1549.498535 1384.069702,1538.362061 1387.947998,1527.405273 
	C1400.110229,1493.047485 1415.139404,1460.172974 1437.931152,1430.695312 
	C1441.165161,1434.831665 1443.942505,1438.701782 1445.175659,1443.013306 
	C1446.494751,1447.625488 1447.322876,1451.619995 1452.949219,1452.879150 
	C1454.765625,1453.285522 1457.079712,1455.773193 1457.436768,1457.639526 
	C1458.886108,1465.218018 1463.648315,1466.878784 1470.315674,1465.977783 
z"/>
<path fill="#329DE6" opacity="1.000000" stroke="none" 
	d="
M588.546265,771.867432 
	C588.445984,769.731873 588.345703,767.596313 588.865051,764.060181 
	C589.441589,756.306091 592.341675,749.624390 587.383118,743.819275 
	C586.998474,741.630310 586.613831,739.441284 586.101074,736.083740 
	C585.773865,734.497742 585.488403,734.151489 585.116638,733.876404 
	C585.116638,733.876404 584.581970,733.591003 584.158081,732.708740 
	C580.298828,728.384827 577.053528,730.835815 573.752136,732.127991 
	C553.170410,740.184082 532.462524,747.935364 512.051697,756.402893 
	C502.427673,760.395325 493.370300,765.753601 484.056183,770.493042 
	C484.056183,770.493042 483.672394,770.838562 482.663147,770.643005 
	C478.132172,770.817444 474.875397,771.576782 473.917511,775.713440 
	C473.917511,775.713440 473.446899,776.168335 472.403137,776.466736 
	C463.853882,784.721313 466.540894,794.667419 465.378967,803.904907 
	C463.770996,802.466797 462.827698,801.115723 461.887634,798.842041 
	C461.871429,782.606995 462.427124,767.263855 461.615356,751.993408 
	C461.133392,742.926758 465.035370,738.439270 472.745239,735.548645 
	C486.701202,730.316223 500.578125,724.873291 514.500488,719.550659 
	C529.071106,713.980225 543.604492,708.306213 558.252136,702.945251 
	C569.378845,698.872864 580.658997,695.219971 591.116089,691.638855 
	C596.925537,696.362244 595.980225,701.603149 595.987732,706.481506 
	C596.062744,755.415283 595.967163,804.349609 596.171387,853.282715 
	C596.225830,866.326721 596.556335,879.240112 588.436279,890.519714 
	C588.135437,890.937561 588.464050,891.808533 588.499268,892.468384 
	C588.499268,892.468384 588.364563,892.514465 587.864258,892.549683 
	C587.058777,893.213074 586.753540,893.841187 586.448303,894.469299 
	C586.448303,894.469299 585.976868,894.088928 585.674622,894.339417 
	C585.049988,895.209900 584.727600,895.829956 584.405151,896.449951 
	C584.405151,896.449951 583.980957,896.140686 583.665161,896.343201 
	C582.973022,897.134216 582.596741,897.722717 582.220398,898.311218 
	C582.220398,898.311218 582.156250,898.023010 581.451782,898.125061 
	C564.367126,905.191467 547.938660,907.210876 531.328003,898.892639 
	C530.266724,898.361206 528.789612,898.659973 527.505981,898.572510 
	C527.505981,898.572510 527.685608,898.604675 527.534912,898.000244 
	C526.731384,897.159729 526.078552,896.923645 525.425720,896.687622 
	C525.425720,896.687561 525.635437,896.379150 525.485962,895.919067 
	C524.693909,895.201965 524.051270,894.945007 523.408569,894.688110 
	C523.408569,894.688110 523.641724,894.431396 523.496582,893.940552 
	C522.732361,893.125183 522.113342,892.800659 521.494324,892.476074 
	C521.494324,892.476013 521.473816,892.137451 521.564514,891.448608 
	C521.303589,889.484314 520.880249,888.223755 520.610901,886.931152 
	C515.184448,860.893921 531.708374,846.872986 550.042969,843.460083 
	C558.997070,841.793274 567.089294,843.987427 575.530457,844.405457 
	C584.580688,844.853577 586.835571,844.143555 588.904480,835.644653 
	C589.676147,832.474976 589.718750,829.096680 589.833191,825.804504 
	C590.086853,818.505188 590.049744,811.194702 590.363647,803.898865 
	C590.746948,794.991577 591.561584,786.098083 591.722107,777.190186 
	C591.753723,775.435547 589.659851,773.642700 588.546265,771.867432 
z"/>
<path fill="#328ED2" opacity="1.000000" stroke="none" 
	d="
M1334.272095,1245.887451 
	C1335.080811,1246.740845 1335.889648,1247.594116 1336.215332,1249.275879 
	C1329.073120,1253.696899 1328.575439,1260.965210 1325.746460,1266.842773 
	C1309.614014,1259.005005 1298.572510,1245.855713 1288.824829,1231.380615 
	C1252.111572,1176.862427 1265.256714,1117.661865 1291.821655,1080.748047 
	C1299.835205,1069.612549 1309.658936,1060.173828 1322.838379,1054.364990 
	C1325.145386,1060.794922 1326.794678,1066.424805 1327.896362,1072.159668 
	C1329.981934,1083.014893 1330.707520,1083.772339 1341.739258,1083.944336 
	C1334.460327,1091.580688 1326.324219,1098.579712 1320.075806,1106.982422 
	C1305.879395,1126.073486 1302.702393,1148.034912 1305.478760,1170.891602 
	C1319.897461,1173.556396 1333.753052,1176.117188 1347.283569,1179.266602 
	C1337.060547,1178.578735 1327.162476,1177.302002 1315.927368,1175.852783 
	C1317.860718,1191.505737 1308.811279,1204.915039 1313.448853,1220.203369 
	C1315.775024,1219.321899 1317.395752,1219.024902 1318.647339,1218.180786 
	C1325.395874,1213.628418 1333.012451,1213.264160 1340.555664,1214.310791 
	C1343.980713,1214.786133 1348.925781,1214.421875 1349.976196,1219.762207 
	C1340.659424,1217.257080 1331.366211,1216.270752 1321.640991,1219.760254 
	C1321.595581,1229.159180 1327.597412,1235.203369 1332.170410,1243.247314 
	C1333.073486,1244.946167 1333.672852,1245.416870 1334.272095,1245.887451 
z"/>
<path fill="#369FE4" opacity="1.000000" stroke="none" 
	d="
M1245.290039,1281.924072 
	C1237.474365,1275.925049 1227.696045,1276.519531 1218.964966,1274.040771 
	C1209.175415,1271.261475 1199.230957,1269.028076 1189.199219,1265.694824 
	C1191.180542,1264.132690 1193.316650,1263.432739 1196.633667,1262.345825 
	C1195.693237,1256.914185 1195.398193,1251.617432 1193.824707,1246.732178 
	C1186.305786,1223.389404 1179.291992,1200.219116 1177.234619,1175.329346 
	C1175.761597,1157.507080 1178.469482,1140.429932 1179.186279,1123.008911 
	C1179.446533,1116.682861 1183.191406,1110.450439 1179.959229,1104.003418 
	C1180.413940,1101.732544 1180.868652,1099.461792 1182.381836,1096.913696 
	C1186.761475,1098.252075 1189.241089,1100.196777 1190.542725,1104.191895 
	C1191.702637,1107.752197 1194.100586,1111.703491 1197.128540,1113.682129 
	C1202.178467,1116.982300 1204.842163,1121.513306 1207.348511,1126.556396 
	C1210.508789,1132.915771 1214.915527,1137.776123 1222.788086,1137.728882 
	C1223.002808,1150.679077 1223.217529,1163.629272 1223.002319,1177.729248 
	C1222.886108,1179.877686 1223.199707,1180.876221 1223.513428,1181.874878 
	C1228.079468,1204.361206 1235.516479,1225.959473 1243.861816,1247.265137 
	C1248.239502,1258.441162 1249.345337,1269.725464 1245.290039,1281.924072 
z"/>
<path fill="#3CA5E6" opacity="1.000000" stroke="none" 
	d="
M1223.134277,1136.959961 
	C1214.915527,1137.776123 1210.508789,1132.915771 1207.348511,1126.556396 
	C1204.842163,1121.513306 1202.178467,1116.982300 1197.128540,1113.682129 
	C1194.100586,1111.703491 1191.702637,1107.752197 1190.542725,1104.191895 
	C1189.241089,1100.196777 1186.761475,1098.252075 1182.823486,1096.346069 
	C1188.908813,1066.717773 1201.644287,1040.269043 1220.753052,1017.037476 
	C1233.893921,1001.061584 1248.491211,986.572021 1267.170166,975.788696 
	C1268.676636,981.772217 1269.223267,987.948669 1270.387817,994.006348 
	C1271.784668,1001.272461 1278.934204,1003.408569 1283.577515,1007.775879 
	C1287.405273,1011.376099 1291.875610,1012.320923 1297.343750,1011.148743 
	C1282.773682,1022.430725 1268.482422,1034.117676 1256.987915,1048.843994 
	C1240.458740,1070.020508 1231.515991,1094.518555 1225.962280,1120.446777 
	C1224.851196,1125.633911 1224.293213,1130.939819 1223.134277,1136.959961 
z"/>
<path fill="#3FA5E4" opacity="1.000000" stroke="none" 
	d="
M1423.988647,1042.086914 
	C1431.500000,1045.479248 1439.495483,1048.090454 1446.441406,1052.395142 
	C1481.873047,1074.352905 1500.578735,1107.502563 1507.311157,1147.659424 
	C1512.858643,1180.749268 1509.427246,1213.318970 1497.685669,1244.864624 
	C1496.181763,1248.905151 1494.355591,1252.858154 1492.294189,1256.642456 
	C1491.480591,1258.135986 1489.615356,1259.056641 1488.366333,1260.121094 
	C1483.898804,1257.510010 1485.291382,1254.015747 1485.559692,1250.847778 
	C1487.246094,1230.943848 1488.400024,1211.032471 1486.330444,1191.083862 
	C1483.395752,1162.795166 1475.288940,1136.381104 1457.936523,1113.360596 
	C1445.054688,1096.270996 1429.450562,1082.703857 1408.333740,1074.461670 
	C1405.036499,1068.921753 1402.175659,1064.618164 1399.526611,1060.187866 
	C1398.766357,1058.916382 1398.618286,1057.278809 1398.123657,1055.583862 
	C1400.980225,1054.398682 1403.297363,1053.437378 1404.684082,1052.862061 
	C1406.294067,1048.073120 1407.580322,1044.247559 1408.306641,1042.086914 
	C1414.711792,1042.086914 1419.350220,1042.086914 1423.988647,1042.086914 
z"/>
<path fill="#216FBC" opacity="1.000000" stroke="none" 
	d="
M1281.850220,1415.642456 
	C1280.418213,1418.986450 1278.369263,1422.210938 1277.693481,1425.701416 
	C1276.578369,1431.459839 1275.456665,1437.471313 1275.980591,1443.226562 
	C1276.600342,1450.034668 1282.359131,1454.984497 1288.451538,1455.706299 
	C1295.278198,1456.515015 1300.241943,1453.272827 1302.991821,1447.405273 
	C1305.938599,1441.117065 1308.152710,1434.469849 1310.451050,1427.896851 
	C1315.343018,1413.906006 1321.441406,1400.751587 1334.908936,1392.513916 
	C1336.464844,1404.919800 1342.218872,1412.603882 1353.834595,1415.548462 
	C1345.718628,1424.250732 1340.951294,1434.624023 1337.194824,1445.865112 
	C1334.390503,1454.256836 1330.599609,1462.718994 1325.442505,1469.842651 
	C1313.946045,1485.722656 1293.844482,1491.458618 1275.553589,1485.475098 
	C1256.634888,1479.286133 1244.480591,1462.595947 1243.746704,1442.696289 
	C1243.108154,1425.383057 1247.238037,1409.804688 1259.293945,1396.916504 
	C1262.902588,1407.793823 1270.885864,1414.456665 1281.850220,1415.642456 
z"/>
<path fill="#267AC5" opacity="1.000000" stroke="none" 
	d="
M1470.871582,1465.632935 
	C1463.648315,1466.878784 1458.886108,1465.218018 1457.436768,1457.639526 
	C1457.079712,1455.773193 1454.765625,1453.285522 1452.949219,1452.879150 
	C1447.322876,1451.619995 1446.494751,1447.625488 1445.175659,1443.013306 
	C1443.942505,1438.701782 1441.165161,1434.831665 1438.507324,1430.351807 
	C1441.195557,1425.351440 1444.320068,1420.672852 1447.713135,1416.197876 
	C1464.210571,1394.439209 1480.779541,1372.734985 1498.317871,1351.078491 
	C1502.397705,1362.790894 1506.288940,1374.059326 1519.126343,1378.340454 
	C1523.975342,1379.957397 1529.350098,1379.998047 1534.485107,1380.757202 
	C1520.874878,1399.108643 1507.290649,1417.479492 1493.644043,1435.803711 
	C1486.293945,1445.673096 1478.836548,1455.462524 1470.871582,1465.632935 
z"/>
<path fill="#3CA2E3" opacity="1.000000" stroke="none" 
	d="
M1402.385986,1312.006592 
	C1400.893433,1299.550537 1400.771484,1286.734619 1397.615845,1274.715088 
	C1391.501953,1251.429077 1378.821045,1232.423828 1356.295898,1220.684570 
	C1356.880493,1217.166992 1358.293701,1214.290649 1357.543579,1212.184692 
	C1355.744019,1207.132080 1357.352295,1202.727539 1359.790039,1199.007935 
	C1362.425415,1194.986572 1366.463501,1191.884399 1369.889771,1188.381226 
	C1396.730103,1201.333374 1415.301636,1222.141602 1427.024536,1249.206543 
	C1435.445435,1268.648071 1439.274780,1289.021729 1436.884277,1311.184082 
	C1434.657349,1312.122559 1433.358765,1312.146362 1431.127686,1312.121826 
	C1421.441040,1312.132446 1412.687012,1312.191528 1403.547119,1312.184082 
	C1403.161133,1312.117676 1402.385986,1312.006592 1402.385986,1312.006592 
z"/>
<path fill="#2F9BE6" opacity="1.000000" stroke="none" 
	d="
M453.515686,1243.429199 
	C452.788391,1246.381714 452.096466,1248.552612 451.467255,1250.741455 
	C448.910767,1259.634033 446.084290,1261.909912 437.119873,1259.735718 
	C424.923523,1256.777588 412.825287,1253.249634 400.965332,1249.154175 
	C396.464417,1247.599731 392.741943,1243.791382 388.030823,1240.578003 
	C382.710968,1244.611816 377.021057,1243.685425 370.143036,1241.612183 
	C361.673462,1239.059448 362.231079,1233.160767 360.787842,1226.617188 
	C370.933167,1215.253052 380.961548,1203.708252 392.405640,1193.798340 
	C408.534760,1179.831665 430.660736,1184.975586 439.493256,1204.525635 
	C445.058105,1216.842896 448.941925,1229.919678 453.515686,1243.429199 
z"/>
<path fill="#2E87CD" opacity="1.000000" stroke="none" 
	d="
M1534.458740,1380.681519 
	C1529.350098,1379.998047 1523.975342,1379.957397 1519.126343,1378.340454 
	C1506.288940,1374.059326 1502.397705,1362.790894 1498.834961,1350.639893 
	C1507.088623,1336.121948 1515.819824,1322.109619 1525.497314,1308.310181 
	C1532.159302,1308.065796 1537.947998,1308.033325 1543.575439,1307.064209 
	C1555.831543,1304.953003 1568.005371,1302.364746 1580.212891,1299.971313 
	C1574.646851,1312.242432 1569.789307,1324.902222 1563.326782,1336.681396 
	C1556.046875,1349.950317 1547.321289,1362.426147 1538.197510,1375.861084 
	C1536.820923,1377.073853 1536.471313,1377.672363 1536.121826,1378.270996 
	C1536.121826,1378.270996 1536.121216,1378.079712 1535.698242,1378.315918 
	C1534.955811,1379.199585 1534.636475,1379.847046 1534.317139,1380.494385 
	C1534.317139,1380.494385 1534.432251,1380.605835 1534.458740,1380.681519 
z"/>
<path fill="#2576C1" opacity="1.000000" stroke="none" 
	d="
M1282.478271,1415.445312 
	C1270.885864,1414.456665 1262.902588,1407.793823 1259.902710,1396.614868 
	C1259.849976,1395.860352 1259.931763,1395.905518 1260.369141,1395.692261 
	C1261.157593,1394.886353 1261.508789,1394.293701 1261.859985,1393.700928 
	C1261.859985,1393.700928 1261.886841,1393.891968 1262.304688,1393.677246 
	C1263.078125,1392.839844 1263.433594,1392.217285 1263.789062,1391.594604 
	C1263.789062,1391.594604 1263.827515,1391.836670 1264.246094,1391.639038 
	C1265.016357,1390.799072 1265.368042,1390.156738 1265.719727,1389.514404 
	C1265.719727,1389.514404 1265.661621,1389.751343 1265.942383,1389.708984 
	C1266.448486,1389.577271 1266.875854,1389.454956 1266.867432,1389.403564 
	C1266.796509,1388.967163 1266.646362,1388.543579 1266.520020,1388.116211 
	C1269.414429,1384.093994 1272.698486,1380.291870 1275.121826,1376.003418 
	C1280.071167,1367.245361 1280.335815,1358.488281 1274.437012,1349.739746 
	C1270.931152,1344.539795 1267.505249,1339.103394 1265.199463,1333.312866 
	C1259.394653,1318.735840 1264.794312,1304.350098 1279.234741,1296.513794 
	C1277.748657,1302.072144 1275.594116,1306.885132 1273.500854,1311.724731 
	C1272.988281,1312.909912 1272.179565,1314.257080 1272.353027,1315.401611 
	C1273.487793,1322.888062 1277.923706,1328.672241 1282.243042,1334.613525 
	C1284.935425,1338.316895 1288.493286,1337.552002 1292.005249,1338.169067 
	C1294.123901,1338.541138 1296.541504,1339.665283 1297.942749,1341.237793 
	C1303.660889,1347.655151 1309.260254,1354.207764 1314.450928,1361.053711 
	C1317.128540,1364.584839 1320.456543,1366.072388 1324.496460,1366.745361 
	C1322.588379,1374.815308 1317.361084,1380.755737 1311.764526,1386.423462 
	C1302.244629,1396.064209 1292.662231,1405.643188 1282.478271,1415.445312 
z"/>
<path fill="#2A82CC" opacity="1.000000" stroke="none" 
	d="
M1324.470093,1366.665283 
	C1320.456543,1366.072388 1317.128540,1364.584839 1314.450928,1361.053711 
	C1309.260254,1354.207764 1303.660889,1347.655151 1297.942749,1341.237793 
	C1296.541504,1339.665283 1294.123901,1338.541138 1292.005249,1338.169067 
	C1288.493286,1337.552002 1284.935425,1338.316895 1282.243042,1334.613525 
	C1277.923706,1328.672241 1273.487793,1322.888062 1272.353027,1315.401611 
	C1272.179565,1314.257080 1272.988281,1312.909912 1273.500854,1311.724731 
	C1275.594116,1306.885132 1277.748657,1302.072144 1279.960449,1296.488892 
	C1295.229370,1288.349854 1310.915283,1292.308838 1322.370361,1306.628418 
	C1333.143311,1320.095215 1335.514282,1335.331787 1331.137329,1351.750732 
	C1330.117554,1355.576294 1328.442505,1359.227417 1326.092896,1363.742920 
	C1324.850708,1365.175293 1324.584717,1365.823608 1324.318604,1366.471802 
	C1324.318604,1366.471802 1324.443726,1366.585083 1324.470093,1366.665283 
z"/>
<path fill="#389BDC" opacity="1.000000" stroke="none" 
	d="
M1423.433105,1041.609375 
	C1419.350220,1042.086914 1414.711792,1042.086914 1408.306641,1042.086914 
	C1407.580322,1044.247559 1406.294067,1048.073120 1404.684082,1052.862061 
	C1403.297363,1053.437378 1400.980225,1054.398682 1398.123657,1055.583862 
	C1398.618286,1057.278809 1398.766357,1058.916382 1399.526611,1060.187866 
	C1402.175659,1064.618164 1405.036499,1068.921753 1407.798950,1074.054443 
	C1405.686401,1074.591553 1403.591675,1074.347900 1400.531250,1073.149902 
	C1390.695190,1068.254517 1372.945923,1069.243408 1364.024048,1074.175781 
	C1364.024048,1074.175781 1364.026855,1074.030273 1363.350342,1074.052002 
	C1359.185303,1073.842896 1355.889648,1074.066284 1354.054199,1077.731079 
	C1354.054199,1077.731079 1353.451294,1078.245361 1352.362915,1078.206299 
	C1350.200073,1078.869019 1349.125732,1079.570801 1348.051270,1080.272461 
	C1348.051270,1080.272461 1348.068115,1080.098633 1347.509766,1080.133667 
	C1345.991577,1080.880737 1345.031738,1081.592651 1344.072021,1082.304688 
	C1344.072021,1082.304688 1344.049683,1082.093750 1343.687744,1082.254883 
	C1342.723999,1082.733765 1342.276855,1083.199463 1341.984131,1083.813477 
	C1341.984131,1083.813477 1341.927124,1083.999512 1341.833252,1083.971924 
	C1330.707520,1083.772339 1329.981934,1083.014893 1327.896362,1072.159668 
	C1326.794678,1066.424805 1325.145386,1060.794922 1323.527466,1054.290894 
	C1323.311523,1053.464111 1323.443848,1053.509033 1324.250610,1053.628174 
	C1330.724243,1050.484253 1336.391235,1047.221436 1342.058105,1043.958496 
	C1342.058105,1043.958496 1342.469238,1043.552734 1343.625488,1043.711670 
	C1361.143311,1040.590698 1377.394775,1036.451782 1394.340332,1037.855713 
	C1395.466431,1037.949097 1396.685913,1036.914673 1397.861816,1036.404785 
	C1406.200439,1037.980347 1414.539062,1039.556030 1423.433105,1041.609375 
z"/>
<path fill="#2A7CC4" opacity="1.000000" stroke="none" 
	d="
M1354.465088,1415.321045 
	C1342.218872,1412.603882 1336.464844,1404.919800 1335.560547,1392.354004 
	C1335.381226,1391.538574 1335.539062,1391.612305 1336.086914,1391.533691 
	C1337.056885,1390.863892 1337.479004,1390.272705 1337.901001,1389.681519 
	C1344.213013,1385.502197 1350.359741,1381.042725 1356.869873,1377.198975 
	C1372.575195,1367.926392 1386.112183,1356.568237 1395.182251,1340.419678 
	C1395.764771,1352.959229 1400.707886,1362.058228 1411.167847,1367.718384 
	C1414.481567,1366.272705 1417.123779,1365.119873 1419.766113,1363.967041 
	C1410.339844,1380.828247 1395.785767,1392.040161 1379.186279,1401.103516 
	C1371.038818,1405.552246 1363.118530,1410.417114 1354.465088,1415.321045 
z"/>
<path fill="#3597DC" opacity="1.000000" stroke="none" 
	d="
M1369.336914,1188.099487 
	C1366.463501,1191.884399 1362.425415,1194.986572 1359.790039,1199.007935 
	C1357.352295,1202.727539 1355.744019,1207.132080 1357.543579,1212.184692 
	C1358.293701,1214.290649 1356.880493,1217.166992 1355.796387,1220.209961 
	C1353.839355,1220.540894 1352.536865,1220.354858 1350.605225,1219.965576 
	C1348.925781,1214.421875 1343.980713,1214.786133 1340.555664,1214.310791 
	C1333.012451,1213.264160 1325.395874,1213.628418 1318.647339,1218.180786 
	C1317.395752,1219.024902 1315.775024,1219.321899 1313.448853,1220.203369 
	C1308.811279,1204.915039 1317.860718,1191.505737 1315.927368,1175.852783 
	C1327.162476,1177.302002 1337.060547,1178.578735 1347.865601,1179.760132 
	C1348.772583,1179.664917 1349.455322,1179.557495 1350.090332,1180.280518 
	C1351.910645,1181.264282 1353.095947,1181.524902 1354.281250,1181.785522 
	C1354.281250,1181.785522 1354.085938,1181.847534 1354.427979,1182.378052 
	C1357.917969,1183.889404 1361.065918,1184.870239 1364.213989,1185.851074 
	C1364.213989,1185.851074 1364.069946,1185.934082 1364.290039,1186.350098 
	C1365.108643,1187.147583 1365.707275,1187.528931 1366.305786,1187.910278 
	C1367.131836,1187.879395 1367.957886,1187.848633 1369.336914,1188.099487 
z"/>
<path fill="#369FE4" opacity="1.000000" stroke="none" 
	d="
M1580.720337,1299.496338 
	C1568.005371,1302.364746 1555.831543,1304.953003 1543.575439,1307.064209 
	C1537.947998,1308.033325 1532.159302,1308.065796 1526.012207,1307.838135 
	C1528.507935,1300.120239 1531.623657,1293.158569 1534.317505,1286.037476 
	C1538.180542,1275.824951 1541.735840,1265.496094 1545.876465,1254.613770 
	C1549.181641,1255.303467 1552.565430,1256.004639 1554.783081,1258.001221 
	C1561.141479,1263.725952 1565.874512,1270.424316 1568.423462,1279.031738 
	C1570.199463,1285.029297 1574.433960,1290.441040 1582.282593,1292.181641 
	C1582.475952,1294.499146 1581.851929,1296.760376 1580.720337,1299.496338 
z"/>
<path fill="#5FABDE" opacity="1.000000" stroke="none" 
	d="
M589.136353,892.245300 
	C588.464050,891.808533 588.135437,890.937561 588.436279,890.519714 
	C596.556335,879.240112 596.225830,866.326721 596.171387,853.282715 
	C595.967163,804.349609 596.062744,755.415283 595.987732,706.481506 
	C595.980225,701.603149 596.925537,696.362244 591.116089,691.638855 
	C580.658997,695.219971 569.378845,698.872864 558.252136,702.945251 
	C543.604492,708.306213 529.071106,713.980225 514.500488,719.550659 
	C500.578125,724.873291 486.701202,730.316223 472.745239,735.548645 
	C465.035370,738.439270 461.133392,742.926758 461.615356,751.993408 
	C462.427124,767.263855 461.871429,782.606995 461.148529,798.970337 
	C459.907898,800.070312 459.409607,800.119507 458.911316,800.168762 
	C458.616486,782.247192 458.195312,764.326355 458.089539,746.403687 
	C458.047699,739.311157 462.953308,736.115601 469.009033,733.849365 
	C484.577789,728.023071 500.045532,721.927490 515.573608,715.991638 
	C534.826172,708.632080 554.083252,701.283630 573.375366,694.028870 
	C577.412842,692.510620 581.744385,691.736755 585.708191,690.068237 
	C593.664978,686.718933 597.686951,688.800842 598.552002,698.935852 
	C598.862793,702.576599 599.124756,706.234802 599.136536,709.885925 
	C599.301147,760.776123 599.501038,811.666626 599.480530,862.556885 
	C599.476196,873.306152 598.000427,883.848694 589.136353,892.245300 
z"/>
<path fill="#2E87CD" opacity="1.000000" stroke="none" 
	d="
M1419.866089,1363.943848 
	C1417.123779,1365.119873 1414.481567,1366.272705 1411.167847,1367.718384 
	C1400.707886,1362.058228 1395.764771,1352.959229 1395.700562,1339.946777 
	C1395.588135,1339.043213 1395.535156,1338.405151 1396.418701,1337.853149 
	C1402.157593,1329.651123 1404.086426,1321.226318 1403.932983,1312.250488 
	C1412.687012,1312.191528 1421.441040,1312.132446 1431.109741,1313.021484 
	C1431.413452,1323.649536 1430.802368,1333.329712 1430.191284,1343.009888 
	C1430.191284,1343.009888 1430.441284,1343.559448 1429.727783,1344.132812 
	C1428.721558,1345.870850 1428.428955,1347.035400 1428.136230,1348.200073 
	C1428.136230,1348.200073 1428.077637,1348.051758 1427.611328,1348.372070 
	C1426.823120,1349.874390 1426.501343,1351.056396 1426.179565,1352.238525 
	C1426.179565,1352.238525 1426.125977,1352.080811 1425.651611,1352.383057 
	C1424.838989,1353.864868 1424.500732,1355.044312 1424.162354,1356.223877 
	C1424.162354,1356.223877 1424.103149,1356.070190 1423.639404,1356.366943 
	C1422.811401,1357.810669 1422.447021,1358.957642 1422.082764,1360.104614 
	C1422.082642,1360.104614 1422.001465,1360.008301 1421.565186,1360.307861 
	C1420.724609,1361.645386 1420.320312,1362.683350 1419.916016,1363.721313 
	C1419.916016,1363.721313 1419.966064,1363.920532 1419.866089,1363.943848 
z"/>
<path fill="#5FABDE" opacity="1.000000" stroke="none" 
	d="
M466.043640,803.991821 
	C466.540894,794.667419 463.853882,784.721313 472.087830,776.554260 
	C471.740021,782.531433 469.758179,788.716125 469.735046,794.908081 
	C469.589630,833.862427 469.885345,872.818481 470.019409,911.773926 
	C470.037720,917.101135 469.797485,922.434082 469.970123,927.754822 
	C470.524261,944.833801 458.967590,964.329224 433.776428,967.012634 
	C427.184357,967.714905 420.463806,967.648376 413.824036,967.385437 
	C391.954559,966.519470 376.571472,940.621826 391.002960,920.247986 
	C399.597717,908.114197 410.793121,900.426941 425.940582,900.229370 
	C435.171265,900.108948 444.417725,901.195251 454.675751,901.737671 
	C455.694427,901.735779 456.136139,902.135620 455.736389,902.751404 
	C453.593414,904.129089 451.820923,905.601746 450.112000,905.531372 
	C442.188538,905.204651 434.291870,904.244446 426.368683,903.891235 
	C409.558350,903.141968 398.985535,913.048401 391.461914,926.285950 
	C388.780487,931.003784 387.379913,937.199097 389.391663,943.474182 
	C393.707062,956.934998 402.455109,964.093933 416.511139,963.945251 
	C424.100464,963.865051 431.757141,963.295898 439.246948,962.095642 
	C454.738770,959.613220 465.903015,946.414551 466.016113,931.005981 
	C466.126160,916.012085 466.065826,901.016968 466.094910,885.083740 
	C466.087524,857.427368 466.065582,830.709595 466.043640,803.991821 
z"/>
<path fill="#5FABDE" opacity="1.000000" stroke="none" 
	d="
M588.306274,772.748352 
	C589.659851,773.642700 591.753723,775.435547 591.722107,777.190186 
	C591.561584,786.098083 590.746948,794.991577 590.363647,803.898865 
	C590.049744,811.194702 590.086853,818.505188 589.833191,825.804504 
	C589.718750,829.096680 589.676147,832.474976 588.904480,835.644653 
	C586.835571,844.143555 584.580688,844.853577 575.530457,844.405457 
	C567.089294,843.987427 558.997070,841.793274 550.042969,843.460083 
	C531.708374,846.872986 515.184448,860.893921 520.610901,886.931152 
	C520.880249,888.223755 521.303589,889.484314 521.551697,891.622070 
	C513.657593,885.236511 514.997986,876.065308 517.259766,867.474670 
	C520.416931,855.483337 528.559387,847.328064 540.234375,842.892761 
	C551.146423,838.747375 562.252380,838.449524 573.620361,840.842163 
	C583.918579,843.009583 585.834167,841.338135 586.211182,830.552551 
	C586.874329,811.579651 587.452515,792.603882 588.306274,772.748352 
z"/>
<path fill="#4B9FD6" opacity="1.000000" stroke="none" 
	d="
M1179.558350,1104.647095 
	C1183.191406,1110.450439 1179.446533,1116.682861 1179.186279,1123.008911 
	C1178.469482,1140.429932 1175.761597,1157.507080 1177.234619,1175.329346 
	C1179.291992,1200.219116 1186.305786,1223.389404 1193.824707,1246.732178 
	C1195.398193,1251.617432 1195.693237,1256.914185 1196.633667,1262.345825 
	C1193.316650,1263.432739 1191.180542,1264.132690 1188.522217,1265.370850 
	C1185.402466,1265.247192 1182.804932,1264.585327 1180.026245,1263.254028 
	C1184.319580,1262.001465 1188.794189,1261.418335 1194.602173,1260.661499 
	C1191.911133,1251.703491 1189.970581,1243.364868 1186.930786,1235.448364 
	C1173.529419,1200.547607 1171.351807,1164.515381 1175.522217,1127.810913 
	C1176.379761,1120.264038 1177.927734,1112.795410 1179.558350,1104.647095 
z"/>
<path fill="#4B9FD6" opacity="1.000000" stroke="none" 
	d="
M1326.144775,1267.356689 
	C1328.575439,1260.965210 1329.073120,1253.696899 1336.468750,1249.816528 
	C1344.725464,1257.258179 1352.363892,1264.905884 1356.261108,1275.387329 
	C1348.061523,1278.848145 1341.115356,1276.936768 1326.144775,1267.356689 
z"/>
<path fill="#2F9BE6" opacity="1.000000" stroke="none" 
	d="
M465.378967,803.904907 
	C466.065582,830.709595 466.087524,857.427368 465.588684,884.894287 
	C463.413483,885.755859 461.759033,885.868225 460.069824,885.045105 
	C460.012146,863.285461 460.050537,842.460876 459.901276,821.637634 
	C459.878510,818.459961 458.987488,815.288513 458.498077,812.114197 
	C458.587738,808.622986 458.677399,805.131714 458.839233,800.904663 
	C459.409607,800.119507 459.907898,800.070312 461.145264,799.892822 
	C462.827698,801.115723 463.770996,802.466797 465.378967,803.904907 
z"/>
<path fill="#5FABDE" opacity="1.000000" stroke="none" 
	d="
M484.835815,770.429321 
	C493.370300,765.753601 502.427673,760.395325 512.051697,756.402893 
	C532.462524,747.935364 553.170410,740.184082 573.752136,732.127991 
	C577.053528,730.835815 580.298828,728.384827 584.020813,732.438538 
	C574.888062,736.154419 565.318237,738.868469 556.078979,742.438293 
	C532.512390,751.543640 509.093475,761.031067 484.835815,770.429321 
z"/>
<path fill="#5FABDE" opacity="1.000000" stroke="none" 
	d="
M458.006470,812.754822 
	C458.987488,815.288513 459.878510,818.459961 459.901276,821.637634 
	C460.050537,842.460876 460.012146,863.285461 460.033813,885.884155 
	C459.304504,892.637939 462.078125,898.559692 456.136139,902.135620 
	C456.136139,902.135620 455.694427,901.735779 455.466583,901.540283 
	C455.815674,895.124023 456.828278,888.907532 456.888733,882.681763 
	C457.077881,863.198486 456.874969,843.711670 456.906433,824.226379 
	C456.912292,820.615723 457.302185,817.005737 458.006470,812.754822 
z"/>
<path fill="#5FABDE" opacity="1.000000" stroke="none" 
	d="
M527.768799,899.202393 
	C528.789612,898.659973 530.266724,898.361206 531.328003,898.892639 
	C547.938660,907.210876 564.367126,905.191467 581.525879,898.252747 
	C581.739197,899.066162 581.350098,900.210754 580.582947,900.589355 
	C562.953674,909.290161 545.393799,910.724976 527.768799,899.202393 
z"/>
<path fill="#328ED2" opacity="1.000000" stroke="none" 
	d="
M1396.960693,1036.169678 
	C1396.685913,1036.914673 1395.466431,1037.949097 1394.340332,1037.855713 
	C1377.394775,1036.451782 1361.143311,1040.590698 1343.879639,1043.848755 
	C1351.204590,1038.184326 1360.768311,1036.899780 1370.277344,1036.167480 
	C1378.826660,1035.508911 1387.462158,1035.968384 1396.960693,1036.169678 
z"/>
<path fill="#2A7CC4" opacity="1.000000" stroke="none" 
	d="
M1430.754883,1342.462402 
	C1430.802368,1333.329712 1431.413452,1323.649536 1432.042236,1313.069824 
	C1433.358765,1312.146362 1434.657349,1312.122559 1436.605591,1312.080688 
	C1437.383789,1322.432495 1435.274048,1332.357300 1430.754883,1342.462402 
z"/>
<path fill="#328ED2" opacity="1.000000" stroke="none" 
	d="
M1364.913818,1074.214844 
	C1372.945923,1069.243408 1390.695190,1068.254517 1399.762939,1072.963867 
	C1388.531250,1071.060059 1377.169434,1072.791504 1364.913818,1074.214844 
z"/>
<path fill="#2A7CC4" opacity="1.000000" stroke="none" 
	d="
M1403.547119,1312.184082 
	C1404.086426,1321.226318 1402.157593,1329.651123 1396.671265,1337.656494 
	C1397.968262,1329.829956 1399.896118,1321.648071 1402.104980,1312.736328 
	C1402.385986,1312.006592 1403.161133,1312.117676 1403.547119,1312.184082 
z"/>
<path fill="#5FABDE" opacity="1.000000" stroke="none" 
	d="
M587.109497,744.681396 
	C592.341675,749.624390 589.441589,756.306091 588.993408,763.265991 
	C587.946777,757.762817 587.391357,751.653198 587.109497,744.681396 
z"/>
<path fill="#328ED2" opacity="1.000000" stroke="none" 
	d="
M1341.310547,1043.972168 
	C1336.391235,1047.221436 1330.724243,1050.484253 1324.305664,1053.671143 
	C1329.223755,1050.392090 1334.893433,1047.188965 1341.310547,1043.972168 
z"/>
<path fill="#5FABDE" opacity="1.000000" stroke="none" 
	d="
M474.591003,775.680603 
	C474.875397,771.576782 478.132172,770.817444 482.404999,770.637695 
	C480.525543,772.434509 477.895020,774.041138 474.591003,775.680603 
z"/>
<path fill="#328ED2" opacity="1.000000" stroke="none" 
	d="
M1363.819336,1185.270996 
	C1361.065918,1184.870239 1357.917969,1183.889404 1354.423340,1182.275635 
	C1357.192871,1182.658936 1360.308838,1183.674927 1363.819336,1185.270996 
z"/>
<path fill="#328ED2" opacity="1.000000" stroke="none" 
	d="
M1354.747559,1077.747681 
	C1355.889648,1074.066284 1359.185303,1073.842896 1363.414551,1074.086304 
	C1361.250488,1075.320557 1358.345825,1076.542480 1354.747559,1077.747681 
z"/>
<path fill="#2A7CC4" opacity="1.000000" stroke="none" 
	d="
M1420.405640,1363.432373 
	C1420.320312,1362.683350 1420.724609,1361.645386 1421.625244,1360.326904 
	C1421.712769,1361.078735 1421.303955,1362.111084 1420.405640,1363.432373 
z"/>
<path fill="#2A7CC4" opacity="1.000000" stroke="none" 
	d="
M1422.608398,1359.790894 
	C1422.447021,1358.957642 1422.811401,1357.810669 1423.721924,1356.365967 
	C1423.890015,1357.204590 1423.512085,1358.340942 1422.608398,1359.790894 
z"/>
<path fill="#3CA5E6" opacity="1.000000" stroke="none" 
	d="
M1223.658447,1181.260620 
	C1223.199707,1180.876221 1222.886108,1179.877686 1222.876099,1178.557861 
	C1223.387695,1179.039917 1223.595459,1179.843140 1223.658447,1181.260620 
z"/>
<path fill="#2A7CC4" opacity="1.000000" stroke="none" 
	d="
M1424.703857,1355.910767 
	C1424.500732,1355.044312 1424.838989,1353.864868 1425.734863,1352.380493 
	C1425.943359,1353.249634 1425.594360,1354.423706 1424.703857,1355.910767 
z"/>
<path fill="#328ED2" opacity="1.000000" stroke="none" 
	d="
M1348.711548,1080.244141 
	C1349.125732,1079.570801 1350.200073,1078.869019 1351.968262,1078.171143 
	C1351.565186,1078.855103 1350.468506,1079.535400 1348.711548,1080.244141 
z"/>
<path fill="#328ED2" opacity="1.000000" stroke="none" 
	d="
M1344.698486,1082.288330 
	C1345.031738,1081.592651 1345.991577,1080.880737 1347.592773,1080.160400 
	C1347.264526,1080.858643 1346.294678,1081.565308 1344.698486,1082.288330 
z"/>
<path fill="#2A7CC4" opacity="1.000000" stroke="none" 
	d="
M1426.722168,1351.922974 
	C1426.501343,1351.056396 1426.823120,1349.874390 1427.690918,1348.372070 
	C1427.912964,1349.237183 1427.588745,1350.422241 1426.722168,1351.922974 
z"/>
<path fill="#328ED2" opacity="1.000000" stroke="none" 
	d="
M1353.928711,1181.270142 
	C1353.095947,1181.524902 1351.910645,1181.264282 1350.352539,1180.505615 
	C1351.178589,1180.256714 1352.377319,1180.505737 1353.928711,1181.270142 
z"/>
<path fill="#2A7CC4" opacity="1.000000" stroke="none" 
	d="
M1428.653198,1347.858643 
	C1428.428955,1347.035400 1428.721558,1345.870850 1429.506958,1344.338623 
	C1429.723145,1345.153076 1429.446655,1346.335083 1428.653198,1347.858643 
z"/>
<path fill="#5FABDE" opacity="1.000000" stroke="none" 
	d="
M525.597778,897.163086 
	C526.078552,896.923645 526.731384,897.159729 527.457886,897.953918 
	C526.944214,898.220886 526.357056,897.929688 525.597778,897.163086 
z"/>
<path fill="#267AC5" opacity="1.000000" stroke="none" 
	d="
M1536.655762,1378.099487 
	C1536.471313,1377.672363 1536.820923,1377.073853 1537.622803,1376.200439 
	C1537.780029,1376.592896 1537.484863,1377.260498 1536.655762,1378.099487 
z"/>
<path fill="#5FABDE" opacity="1.000000" stroke="none" 
	d="
M586.941528,894.307373 
	C586.753540,893.841187 587.058777,893.213074 587.911438,892.497314 
	C588.117493,892.988342 587.776123,893.566895 586.941528,894.307373 
z"/>
<path fill="#267AC5" opacity="1.000000" stroke="none" 
	d="
M1534.888184,1380.361694 
	C1534.636475,1379.847046 1534.955811,1379.199585 1535.791504,1378.336914 
	C1536.025146,1378.823975 1535.742188,1379.526489 1534.888184,1380.361694 
z"/>
<path fill="#216FBC" opacity="1.000000" stroke="none" 
	d="
M1266.116455,1388.386475 
	C1266.646362,1388.543579 1266.796509,1388.967163 1266.867432,1389.403564 
	C1266.875854,1389.454956 1266.448486,1389.577271 1265.847656,1389.632202 
	C1265.472046,1389.597778 1265.712891,1388.656616 1266.116455,1388.386475 
z"/>
<path fill="#216FBC" opacity="1.000000" stroke="none" 
	d="
M1265.164551,1389.667480 
	C1265.368042,1390.156738 1265.016357,1390.799072 1264.124756,1391.621460 
	C1263.926392,1391.141235 1264.267822,1390.480835 1265.164551,1389.667480 
z"/>
<path fill="#216FBC" opacity="1.000000" stroke="none" 
	d="
M1337.341309,1389.821167 
	C1337.479004,1390.272705 1337.056885,1390.863892 1336.098389,1391.619995 
	C1335.968628,1391.176880 1336.375122,1390.568848 1337.341309,1389.821167 
z"/>
<path fill="#216FBC" opacity="1.000000" stroke="none" 
	d="
M1263.244385,1391.753906 
	C1263.433594,1392.217285 1263.078125,1392.839844 1262.208740,1393.666382 
	C1262.029907,1393.218018 1262.364746,1392.565674 1263.244385,1391.753906 
z"/>
<path fill="#5FABDE" opacity="1.000000" stroke="none" 
	d="
M521.605225,892.971069 
	C522.113342,892.800659 522.732361,893.125183 523.339233,894.013428 
	C522.790039,894.206726 522.253052,893.836426 521.605225,892.971069 
z"/>
<path fill="#216FBC" opacity="1.000000" stroke="none" 
	d="
M1261.337158,1393.864502 
	C1261.508789,1394.293701 1261.157593,1394.886353 1260.328735,1395.701050 
	C1260.172119,1395.291382 1260.493164,1394.659790 1261.337158,1393.864502 
z"/>
<path fill="#2576C1" opacity="1.000000" stroke="none" 
	d="
M1324.866699,1366.293091 
	C1324.584717,1365.823608 1324.850708,1365.175293 1325.569824,1364.236328 
	C1325.820190,1364.668457 1325.617554,1365.391357 1324.866699,1366.293091 
z"/>
<path fill="#5FABDE" opacity="1.000000" stroke="none" 
	d="
M523.552979,895.156006 
	C524.051270,894.945007 524.693909,895.201965 525.333557,896.026489 
	C524.623596,896.544434 524.079163,896.221130 523.552979,895.156006 
z"/>
<path fill="#5FABDE" opacity="1.000000" stroke="none" 
	d="
M584.902100,896.298889 
	C584.727600,895.829956 585.049988,895.209900 585.921143,894.513977 
	C586.112976,895.007996 585.756042,895.577881 584.902100,896.298889 
z"/>
<path fill="#328ED2" opacity="1.000000" stroke="none" 
	d="
M1342.505371,1083.748535 
	C1342.276855,1083.199463 1342.723999,1082.733765 1343.793701,1082.259644 
	C1343.849976,1082.629883 1343.438354,1083.156738 1342.505371,1083.748535 
z"/>
<path fill="#5FABDE" opacity="1.000000" stroke="none" 
	d="
M582.735474,898.192261 
	C582.596741,897.722717 582.973022,897.134216 583.892212,896.474243 
	C584.040283,896.959595 583.645386,897.516418 582.735474,898.192261 
z"/>
<path fill="#2D9CE8" opacity="1.000000" stroke="none" 
	d="
M840.833923,1272.673706 
	C841.537415,1272.524536 841.696350,1272.891602 841.289429,1273.548706 
	C841.088745,1273.669067 840.654602,1273.020386 840.833923,1272.673706 
z"/>
<path fill="#369FE4" opacity="1.000000" stroke="none" 
	d="
M1547.917480,1248.469971 
	C1548.418579,1248.416748 1548.717163,1248.791138 1548.936646,1249.207275 
	C1548.966064,1249.262817 1548.596313,1249.528931 1548.043457,1249.800049 
	C1547.675293,1249.902466 1547.690063,1248.910645 1547.917480,1248.469971 
z"/>
<path fill="#4B9FD6" opacity="1.000000" stroke="none" 
	d="
M1334.122437,1245.337402 
	C1333.672852,1245.416870 1333.073486,1244.946167 1332.382080,1243.889893 
	C1332.850830,1243.798584 1333.411743,1244.292847 1334.122437,1245.337402 
z"/>
<path fill="#328ED2" opacity="1.000000" stroke="none" 
	d="
M1366.095703,1187.391846 
	C1365.707275,1187.528931 1365.108643,1187.147583 1364.292725,1186.267090 
	C1364.678711,1186.136353 1365.282104,1186.504883 1366.095703,1187.391846 
z"/>
<path fill="#5FABDE" opacity="1.000000" stroke="none" 
	d="
M585.062988,734.256836 
	C585.488403,734.151489 585.773865,734.497742 586.057007,735.243774 
	C585.568359,735.496643 585.191101,735.184998 585.062988,734.256836 
z"/>
<path fill="#2D9CE8" opacity="1.000000" stroke="none" 
	d="
M455.736389,902.751404 
	C462.078125,898.559692 459.304504,892.637939 460.068604,886.819641 
	C461.759033,885.868225 463.413483,885.755859 465.574097,885.832886 
	C466.065826,901.016968 466.126160,916.012085 466.016113,931.005981 
	C465.903015,946.414551 454.738770,959.613220 439.246948,962.095642 
	C431.757141,963.295898 424.100464,963.865051 416.511139,963.945251 
	C402.455109,964.093933 393.707062,956.934998 389.391663,943.474182 
	C387.379913,937.199097 388.780487,931.003784 391.461914,926.285950 
	C398.985535,913.048401 409.558350,903.141968 426.368683,903.891235 
	C434.291870,904.244446 442.188538,905.204651 450.112000,905.531372 
	C451.820923,905.601746 453.593414,904.129089 455.736389,902.751404 
z"/>
</svg>